PathFileType	4	(X/Y/Z)	3_coords_data.trc
DataRate	CameraRate	NumFrames	NumMarkers	Units	OrigDataRate	OrigDataStartFrame	OrigNumFrames
30.0	30.0	8	21	m	30.0	11	62
Frame#	Time	THUMB_TIP	THUMB_IP	THUMB_MCP	THUMB_CMC	INDEX_TIP	INDEX_DIP	INDEX_PIP	INDEX_MCP	MIDDLE_TIP	MIDDLE_DIP	MIDDLE_PIP	MIDDLE_MCP	RING_TIP	RING_DIP	RING_PIP	RING_MCP	PINKY_TIP	PINKY_DIP	PINKY_PIP	PINKY_MCP	WRIST
X1	Y1	Z1	X2	Y2	Z2	X3	Y3	Z3	X4	Y4	Z4	X5	Y5	Z5	X6	Y6	Z6	X7	Y7	Z7	X8	Y8	Z8	X9	Y9	Z9	X10	Y10	Z10	X11	Y11	Z11	X12	Y12	Z12	X13	Y13	Z13	X14	Y14	Z14	X15	Y15	Z15	X16	Y16	Z16	X17	Y17	Z17	X18	Y18	Z18	X19	Y19	Z19	X20	Y20	Z20	X21	Y21	Z21
9	0.33333333333333187	0.5418277174771128	-0.02449471018115701	-0.11686943851619719	0.5220728868548264	-0.02381376239719113	-0.1285862203781375	0.493353390138205	-0.020428564280651262	-0.11707314337606073	0.47284589951328737	-0.027891791305454106	-0.07816770583006766	0.5663779633576245	0.05365427874521256	-0.15864691543334586	0.5524835137190309	0.04720465508823957	-0.14898530977362234	0.5332802418227532	0.03753380294401071	-0.1359576929431311	0.5018428806799989	0.021210364902786105	-0.11231718133922641	0.5304092954456519	-0.014717244539628499	-0.12295277923270997	0.5461709355478104	-0.008076111534473601	-0.1289081174848894	0.5495186029256205	0.01970933527537655	-0.12077352353653903	0.5138378147771927	0.023958169679090036	-0.09422212650518019	0.5433525513623264	-0.01886865189006473	-0.11070191999788942	0.5586761566424948	-0.009538346260186348	-0.11247181210495644	0.5611427695608392	0.011983938771001179	-0.10018820323999411	0.5269553636428949	0.01576526678147333	-0.07893629346513087	0.6042861711493717	0.0018452289593371696	-0.0832371901960195	0.5877576676857669	0.0012690455690639313	-0.0788239616777604	0.5673541170871778	0.0001149099613147464	-0.07400990798365376	0.5322206617436561	-0.005724757868074887	-0.06831587195749722	0.4622830810018609	-0.023011742144276925	-0.051989820119430985
10	0.3666666666666651	0.5417847141376944	-0.024551236665039583	-0.1168052681252375	0.5220679350492717	-0.023839479135025016	-0.12858414853030198	0.4933445777222576	-0.020466521470541732	-0.11707711153295708	0.4728534429408614	-0.02791524221128161	-0.07816027771136863	0.5663944738066408	0.05360862911246056	-0.15868703426155895	0.5525172197170989	0.047148325786271206	-0.14900786591567716	0.5333102447791738	0.03747405503367013	-0.13598824871165444	0.5018815771365411	0.02113544321173899	-0.11234666018758976	0.5304730299879072	-0.01479914592236245	-0.1230825942663521	0.5462824148505845	-0.00818479057990007	-0.12894037999710306	0.549558800193136	0.019620655581805202	-0.12084519545099015	0.5138781304989385	0.0238519497476975	-0.09429083835360835	0.5433655836213789	-0.018807073120954976	-0.11059888882908775	0.5587131949336454	-0.009531788179538786	-0.1124481903899831	0.5612897041302845	0.011992052094407013	-0.10018989200801731	0.5270208080148652	0.015585617778707872	-0.0790368809055001	0.6042684964504668	0.001713058138167467	-0.08331386806997282	0.5877470485198092	0.001195686514931238	-0.07886706192645337	0.5673367868474386	0.00022210122178908942	-0.07404157033052905	0.5322399971237938	-0.005869775430094731	-0.06838579090126407	0.4622830810018609	-0.023011742144276925	-0.051989820119430985
11	0.39999999999999825	0.5417489520312169	-0.024603158413492615	-0.11679839745079962	0.5220478838449678	-0.02391351221527291	-0.12860484909564396	0.49333528857832987	-0.020497195759302367	-0.11708375301380741	0.4728711694027822	-0.027931784363948886	-0.07815000520231824	0.5664422005208878	0.05347045420682839	-0.15875799904192323	0.5525501780721757	0.0469867156936582	-0.14911575619197837	0.5333593771948759	0.03748895377202294	-0.13594322746102594	0.5019218211527644	0.021034355198289334	-0.11239407992069278	0.5304000226177021	-0.014872667766446634	-0.12302140875362855	0.5462380847954501	-0.008355268023264889	-0.1289103209656895	0.5495666318877996	0.01946390138106524	-0.12088385612074065	0.5139073540333117	0.023796080955473642	-0.09431703387886348	0.543345521788807	-0.01886217502081336	-0.11064559589331585	0.5587107154321466	-0.009609122252007885	-0.11245993840794283	0.561440111380873	0.011924224793936344	-0.10025152566287227	0.5271130198917601	0.015341006649742417	-0.07916368021465492	0.6042718041803424	0.0015544947706422896	-0.08335804745606107	0.5877503235180616	0.0011030965984291374	-0.07890418212176975	0.5673404289442947	0.00020222207831119277	-0.0740630409766756	0.532254993889777	-0.006004212709392137	-0.06846162461461058	0.4622830810018609	-0.023011742144276925	-0.051989820119430985
12	0.43333333333333146	0.5416938877055274	-0.024624176885808063	-0.11682885120030823	0.5219929976923211	-0.023962206838717692	-0.12863718420477177	0.49329592724373517	-0.020475982518308483	-0.11709836330934748	0.47287957668794656	-0.02793968860957738	-0.07814511284977338	0.5664753414277074	0.053474486242975905	-0.1587201440073679	0.5525613506536629	0.04689719100725903	-0.149173414299137	0.5333840714253253	0.03753000313612043	-0.13588817490403515	0.5019314317902287	0.021028238154137013	-0.1123922325636193	0.5304096886938068	-0.014852522180843375	-0.12297476687679304	0.5462612791924394	-0.008367051674124881	-0.12886252969217116	0.5495585985991833	0.01946525200209792	-0.12086877545499147	0.5138957465840827	0.023815503942584026	-0.09430970515493525	0.5431791432859645	-0.01881779937873443	-0.11049042408584875	0.5585750141748025	-0.00962750001509402	-0.11236273740922842	0.5614578969504465	0.01190509519640831	-0.10018832533473854	0.5271249780149504	0.01535499190562506	-0.07911536341515074	0.6042641753337445	0.0014691698197194514	-0.08334585566056102	0.5877452210541707	0.0010607297149178851	-0.07887849333026609	0.5673358433886205	0.0002787825803318711	-0.07401455655192957	0.5322586493609724	-0.005994539095152129	-0.06843608495994002	0.4622830810018609	-0.023011742144276925	-0.051989820119430985
13	0.4666666666666647	0.5416609520090278	-0.024655682347272917	-0.11681600338239723	0.5219703225682374	-0.023994896770077073	-0.12864150441391586	0.49327272790481524	-0.020507263473878323	-0.11710441316329429	0.4728706910558099	-0.027968699582139767	-0.0781432290999966	0.5665030762000711	0.05338674423183076	-0.15875251800888707	0.5525907107759973	0.0468636765283319	-0.14916629476703602	0.5334028574463481	0.037549969767138314	-0.13585874112384644	0.5019438214954923	0.020970950265215782	-0.11242583128751493	0.5302555705355508	-0.014737540179737385	-0.12288400566093671	0.5461137092737863	-0.008360961496255592	-0.12887221741840132	0.5495710605212949	0.01945059914242897	-0.12087388214210004	0.513899788162321	0.023796804879411992	-0.0943254594962305	0.5431736113117612	-0.0186960344383445	-0.11043487404874991	0.5585944929892043	-0.009548717024279146	-0.11231183766497671	0.5615794958183394	0.011975777455735193	-0.10014771523506472	0.5271610859628183	0.01524409708088198	-0.07918555924277115	0.6042570814902266	0.0013895258189594029	-0.08337333168310462	0.5877415170990236	0.0010023313486286767	-0.078891567155358	0.5673325942492397	0.00030934519419206774	-0.07401225805454037	0.5322663037125746	-0.006032741868258529	-0.06844299861629377	0.4622830810018609	-0.023011742144276925	-0.051989820119430985
14	0.4999999999999978	0.5416350371522483	-0.02471812096700704	-0.11677320708734329	0.5219624420253417	-0.024036731384387194	-0.128627518927746	0.49324541853433534	-0.020579462642472734	-0.11712969936649131	0.4728860987697102	-0.02798071584981629	-0.0781347054610868	0.5665634747050676	0.053363488443571805	-0.15868826644581457	0.5526368839932628	0.04680233173624354	-0.14914880661793356	0.5334403242563174	0.03766612069938163	-0.13573122206795568	0.5019520266184195	0.020974958850269287	-0.11241752819517131	0.5302298560504937	-0.014558330611908088	-0.12289269408040443	0.5461617523077386	-0.008268725317337328	-0.1287761919249601	0.5496217066403096	0.01955240632679689	-0.12081234234976856	0.5139052926808325	0.023805151905142208	-0.09430951514357927	0.5432475825267804	-0.018618400738820706	-0.11045196626102	0.5586988148844704	-0.00952093984976296	-0.11232162505361865	0.561717523642473	0.012002582296810893	-0.10016410183380514	0.5272175504728484	0.015062861976903319	-0.07930487429358196	0.60424115663271	0.0013124965452763482	-0.08339190413839215	0.5877241824642578	0.0009330325552420193	-0.07891467604514635	0.5673195947673223	0.000409159624884442	-0.07399630466115104	0.5322786891611753	-0.0060962413061908804	-0.06845571407647011	0.4622830810018609	-0.023011742144276925	-0.051989820119430985
15	0.533333333333331	0.5416220968576251	-0.024755194319553225	-0.1167376623277605	0.5219628444930484	-0.024062247134776976	-0.12861342001579879	0.49323359658661126	-0.02060741117509568	-0.1171454462094903	0.47289722263467027	-0.02797280511759148	-0.07813169393470054	0.5666250768957971	0.05325918767639609	-0.1586861354648953	0.5526949662520934	0.046723850413793455	-0.1491340998536651	0.5334778411531496	0.03765755426133882	-0.13569854217980837	0.5019706106051419	0.02104309399729426	-0.11235565831064659	0.5302349926680427	-0.014489517924989898	-0.12289152335967052	0.5461872756644783	-0.008229331259289374	-0.12875110782550214	0.5496907290911941	0.019579681932424098	-0.1207639838506322	0.5139268341433074	0.023775385253356374	-0.09431615193950482	0.5432699461909181	-0.01860875429843603	-0.11044413073930448	0.5587293204727426	-0.00951587738201573	-0.1122682294749266	0.5617618756049052	0.012010571535140124	-0.10011933712263882	0.5272224511961333	0.015042660529535068	-0.07932137011043278	0.6042610262980911	0.0011634353702453526	-0.08339986262368398	0.5877418475271722	0.0007767167424480859	-0.07893139740200744	0.5673373176969407	0.0002937968122206924	-0.07400859639565133	0.5322694356757333	-0.006011837047681073	-0.06840805328167177	0.462283081001861	-0.023011742144276925	-0.051989820119430985
16	0.5666666666666642	0.541640865482482	-0.024730943823342927	-0.11672530423321847	0.5219859714718283	-0.024076795549843266	-0.12861047278340082	0.49326675911354556	-0.02058505838228797	-0.11712854728840744	0.4728797151869274	-0.02795515510978644	-0.07814213793641073	0.5666832788304904	0.05317633008009884	-0.15866473931429614	0.5527624750793908	0.046770772532789745	-0.14901175762823232	0.5335146079931318	0.03782689577523521	-0.1355382089429235	0.5019872198933356	0.021105863415641385	-0.11229886793603944	0.5301588126508762	-0.014537899579738084	-0.1229003821587602	0.5461564985261902	-0.008320675519358084	-0.12868140037511344	0.5496462767878064	0.01950929297447615	-0.12076156127845578	0.5139226626763487	0.0238153303640066	-0.09427704961945715	0.5432945913189702	-0.018581242932383835	-0.11046313607672797	0.5587638999337905	-0.009494796168322911	-0.11223428716665107	0.5618149218194538	0.012032701074800561	-0.10009187773110173	0.52723233481828	0.015000548413451248	-0.07935646376174227	0.6042510613163671	0.0010753623930523648	-0.0833820483949616	0.5877276409922245	0.0006554114688682444	-0.07893230435591958	0.5673278248422332	0.00037072533034288035	-0.07397463616925304	0.5322630745674047	-0.005943931122774887	-0.06836465817972226	0.462283081001861	-0.023011742144276925	-0.051989820119430985
